<svg width="337.12mm" height="38.013mm" version="1.1" viewBox="0 0 337.12 38.013" xmlns="http://www.w3.org/2000/svg"><g transform="translate(58.192 -159.4)" fill="#fff"><path d="m142.23 164.84a7.276 5.6696 0 0 0-6.2673 2.7895 7.276 5.6696 0 0 0-4.8829-1.4666 7.276 5.6696 0 0 0-7.1117 4.4716 7.276 5.6696 0 0 0-4.8891 5.3557 7.276 5.6696 0 0 0 7.276 5.6699 7.276 5.6696 0 0 0 4.5181-1.2258 7.276 5.6696 0 0 0 5.3092 1.7927 7.276 5.6696 0 0 0 7.276-5.67 7.276 5.6696 0 0 0-0.0238-0.45577 7.276 5.6696 0 0 0 6.0715-5.5914 7.276 5.6696 0 0 0-7.276-5.6699z" opacity=".1"/><path d="m262.69 178.68a10.453 6.4603 0 0 0-10.009 4.5975 10.453 6.4603 0 0 0-2.0377-0.12404 10.453 6.4603 0 0 0-10.453 6.4604 10.453 6.4603 0 0 0 10.453 6.4604 10.453 6.4603 0 0 0 8.2763-2.5146 10.453 6.4603 0 0 0 9.5624 3.8511 10.453 6.4603 0 0 0 10.453-6.4604 10.453 6.4603 0 0 0-5.7924-5.7824 10.453 6.4603 0 0 0 0-0.0275 10.453 6.4603 0 0 0-10.453-6.4604z" opacity=".1"/><path d="m-29.669 159.4a9.6384 9.0714 0 0 0-9.001 5.8617 9.6384 9.0714 0 0 0-0.24598-3e-3 9.6384 9.0714 0 0 0-2.5151 0.31472 9.6384 9.0714 0 0 0-7.1231-2.9606 9.6384 9.0714 0 0 0-9.6387 9.0713 9.6384 9.0714 0 0 0 9.6387 9.0718 9.6384 9.0714 0 0 0 2.5151-0.3147 9.6384 9.0714 0 0 0 7.1231 2.9605 9.6384 9.0714 0 0 0 9.015-5.8622 9.6384 9.0714 0 0 0 0.24546 3e-3 9.6384 9.0714 0 0 0 9.6387-9.0713 9.6384 9.0714 0 0 0-9.6387-9.0713 9.6384 9.0714 0 0 0-0.01344 0z" opacity=".1"/></g></svg>
